<?xml version="1.0" encoding="UTF-8" standalone="no"?>
<svg
   width="220"
   height="128"
   viewBox="0 0 220 128"
   version="1.1"
   id="svg12"
   sodipodi:docname="cart-empty.svg"
   inkscape:version="1.4.2 (f4327f4, 2025-05-13)"
   xmlns:inkscape="http://www.inkscape.org/namespaces/inkscape"
   xmlns:sodipodi="http://sodipodi.sourceforge.net/DTD/sodipodi-0.dtd"
   xmlns="http://www.w3.org/2000/svg"
   xmlns:svg="http://www.w3.org/2000/svg">
  <defs
     id="defs12" />
  <sodipodi:namedview
     id="namedview12"
     pagecolor="#ffffff"
     bordercolor="#000000"
     borderopacity="0.25"
     inkscape:showpageshadow="2"
     inkscape:pageopacity="0.0"
     inkscape:pagecheckerboard="0"
     inkscape:deskcolor="#d1d1d1"
     showgrid="false"
     inkscape:zoom="5.8909091"
     inkscape:cx="82.330247"
     inkscape:cy="74.351852"
     inkscape:window-width="1920"
     inkscape:window-height="991"
     inkscape:window-x="-9"
     inkscape:window-y="-9"
     inkscape:window-maximized="1"
     inkscape:current-layer="g12" />
  <g
     fill="none"
     fill-rule="evenodd"
     id="g12">
    <g
       id="g11"
       transform="translate(5.2623457,-1.0185185)">
      <g
         id="g10">
        <ellipse
           cx="116.722"
           cy="113.667"
           fill="#cccccc"
           rx="83.722"
           ry="13.444"
           id="ellipse1" />
        <ellipse
           cx="114.444"
           cy="110.611"
           fill="#666666"
           rx="59.889"
           ry="5.5"
           id="ellipse2" />
        <ellipse
           cx="31.167"
           cy="113.056"
           fill="#cccccc"
           rx="14.056"
           ry="4.2779999"
           id="ellipse3" />
        <ellipse
           cx="8.5559998"
           cy="105.722"
           fill="#cccccc"
           rx="8.5559998"
           ry="3.056"
           id="ellipse4" />
        <g
           transform="translate(26.778)"
           id="g9">
          <path
             fill="#cccccc"
             d="M 136.465,97.075 H 40.997 c -5.27,-0.005 -9.54,-4.139 -9.546,-9.239 v -4.619 c 0.005,-5.1 4.276,-9.233 9.546,-9.239 h 2.387 c 1.318,0 2.387,1.034 2.387,2.31 0,1.275 -1.069,2.31 -2.387,2.31 h -2.387 c -2.635,0.003 -4.77,2.069 -4.773,4.619 v 4.62 c 0.003,2.55 2.138,4.616 4.773,4.619 h 95.468 c 1.319,0 2.387,1.034 2.387,2.31 0,1.275 -1.068,2.31 -2.387,2.31 z"
             id="path4" />
          <circle
             cx="116.111"
             cy="100.222"
             r="9.7779999"
             fill="#7e8589"
             fill-rule="nonzero"
             id="circle4" />
          <circle
             cx="47.667"
             cy="100.222"
             r="9.7779999"
             fill="#7e8589"
             fill-rule="nonzero"
             id="circle5" />
          <circle
             cx="116.111"
             cy="100.222"
             r="2.444"
             fill="#ffffff"
             fill-rule="nonzero"
             id="circle6" />
          <circle
             cx="47.667"
             cy="100.222"
             r="2.444"
             fill="#ffffff"
             fill-rule="nonzero"
             id="circle7" />
          <g
             id="g8">
            <path
               fill="#cccccc"
               d="M 137.42,15.132 H 27.963 L 25.21,4.096 C 24.966,3.069 24.045,2.343 22.983,2.343 H 6.973 c -1.264,0 -2.288,1.018 -2.288,2.275 0,1.256 1.024,2.275 2.287,2.275 h 14.2 l 15.67,65.634 c 0.243,1.027 1.164,1.753 2.226,1.753 h 86.915 c 1.084,0 2.019,-0.755 2.24,-1.81 l 11.436,-54.6 c 0.14,-0.67 -0.03,-1.367 -0.465,-1.899 -0.434,-0.531 -1.086,-0.84 -1.774,-0.84 z m -41.264,4.55 h 18.087 l -1.143,9.1 H 95.774 Z m -27.26,0 0.38,9.1 H 51.95 l -1.143,-9.1 h 18.088 z m -39.856,0 h 17.158 l 1.144,9.1 h -16.15 z m 3.229,13.65 h 15.644 l 1.144,9.1 H 34.421 Z m 3.229,13.649 h 14.13 l 1.145,9.1 H 37.649 Z m 5.382,22.75 -2.153,-9.1 h 12.617 l 1.144,9.1 z m 11.644,-36.4 h 16.944 l 0.38,9.1 H 53.667 l -1.142,-9.1 z m 1.715,13.65 h 15.8 l 0.382,9.1 H 55.38 l -1.142,-9.1 z m 2.86,22.75 -1.144,-9.1 H 70.61 l 0.381,9.1 H 57.098 Z m 32.382,0 h -13.91 l -0.382,-9.1 h 14.673 l -0.38,9.1 z m 0.572,-13.65 H 74.999 l -0.382,-9.1 h 15.817 z m 0.572,-13.65 H 74.427 l -0.381,-9.1 h 16.96 z m 0.572,-13.65 H 73.855 l -0.381,-9.1 h 18.103 z m 16.757,40.95 H 94.059 l 0.38,-9.1 h 14.658 z m 1.715,-13.65 H 94.631 l 0.38,-9.1 h 15.801 z m 1.716,-13.65 H 95.202 l 0.382,-9.1 h 16.944 z m 12.74,27.3 h -11.561 l 1.143,-9.1 h 12.323 z m 2.86,-13.65 h -12.706 l 1.144,-9.1 h 13.466 l -1.905,9.1 z m 2.858,-13.65 h -13.849 l 1.144,-9.1 h 14.61 z m 2.86,-13.65 H 117.71 l 1.144,-9.1 h 15.753 l -1.905,9.1 z"
               transform="rotate(-5,142.095,-1.657)"
               id="path7" />
            <path
               fill="#ff6319"
               d="M 2.213,0 H 18.741 V 8.2 H 2.213 C 0.991,8.2 0,7.207 0,5.985 V 2.213 C 0,0.991 0.991,0 2.213,0 Z"
               transform="rotate(-5,142.095,-1.657)"
               id="path8" />
          </g>
        </g>
      </g>
    </g>
    <path
       style="fill:#62694a;stroke:#c8ab37;stroke-width:0;stroke-opacity:0.890196"
       d="m 33.632912,19.28215 c -0.746715,-0.599919 -0.873753,-1.014088 -1.115126,-3.635511 -0.185856,-2.018481 -0.184457,-2.566706 0.0077,-3.036529 0.293266,-0.716885 1.037507,-1.327252 1.774516,-1.455318 0.310314,-0.05392 4.30677,-0.4306 8.881013,-0.837063 5.7577,-0.5116224 8.353068,-0.6790921 8.434657,-0.5442581 0.14958,0.2471991 0.800622,8.2204891 0.681188,8.3424771 -0.11966,0.122216 -15.912255,1.541327 -17.184489,1.544187 -0.749759,0.0017 -1.126836,-0.09465 -1.479498,-0.377985 z"
       id="path12" />
    <path
       style="fill:#62694a;stroke:#c8ab37;stroke-width:0;stroke-opacity:0.890196"
       d="m 69.386034,95.224601 c -2.76432,-1.119754 -4.863415,-3.5431 -5.581547,-6.443737 -0.157595,-0.636547 -0.230466,-2.040997 -0.229004,-4.41358 0.0019,-3.106621 0.04222,-3.608168 0.375677,-4.67526 0.632433,-2.02381 2.259451,-4.114823 4.074244,-5.236142 0.957636,-0.5917 2.935898,-1.232377 4.258237,-1.379064 0.693725,-0.07695 1.04711,-0.187499 1.001085,-0.313157 -0.03912,-0.106819 -4.291432,-12.859545 -9.449573,-28.339394 l -9.378438,-28.145176 -1.171259,0.115413 c -0.644192,0.06348 -1.176367,0.08645 -1.182611,0.05104 -0.0062,-0.03541 -0.103294,-1.02462 -0.215669,-2.198257 l -0.204317,-2.133885 2.295145,-0.191275 c 2.163337,-0.180291 2.335715,-0.171839 3.001608,0.147174 0.89849,0.430445 0.929294,0.498881 3.107358,6.903524 l 1.747292,5.137951 0.784258,-0.09283 c 2.076189,-0.245759 107.72492,-9.419178 108.4791,-9.419178 0.74269,0 0.95306,0.07924 1.46477,0.551698 0.38779,0.358049 0.63018,0.760242 0.69056,1.145833 0.0512,0.326775 -1.4072,13.121914 -3.24083,28.433642 -2.57548,21.506613 -3.40293,27.97466 -3.63748,28.433642 -0.21767,0.425953 -0.51527,0.676721 -1.05132,0.885879 -0.58197,0.227077 -10.30467,1.124431 -43.86499,4.048504 -23.714503,2.066218 -43.450925,3.719346 -43.858711,3.673616 -1.044637,-0.117146 -1.490974,-0.642196 -2.143741,-2.521792 l -0.551412,-1.58775 -1.399161,-0.04962 c -2.291872,-0.08128 -3.71754,0.617893 -4.713035,2.311343 -0.462563,0.786873 -0.467133,0.824697 -0.521385,4.316534 -0.05318,3.422879 -0.04312,3.54795 0.354997,4.41358 0.753917,1.63925 2.518889,2.843037 4.168414,2.843037 h 0.636498 l -0.88897,0.940072 c -0.488935,0.517041 -1.147835,1.457512 -1.464226,2.089939 L 70.502344,95.67679 Z M 85.640432,76.798776 c 2.987654,-0.249589 5.456845,-0.475032 5.48709,-0.50098 0.05479,-0.04701 -1.838938,-8.943637 -1.924855,-9.042864 -0.05346,-0.06175 -12.530874,1.012236 -12.620621,1.086308 -0.03381,0.02791 0.598889,2.08004 1.405993,4.560297 1.38215,4.247387 1.489349,4.504954 1.84388,4.430301 0.207028,-0.04359 2.820859,-0.283472 5.808513,-0.533062 z m 17.376708,-1.50783 c 3.58188,-0.320052 6.53087,-0.604988 6.55332,-0.633189 0.0448,-0.05628 -1.11269,-9.022079 -1.17359,-9.090558 -0.0803,-0.09024 -14.446019,1.20484 -14.571623,1.313634 -0.0732,0.0634 0.28965,2.073113 0.806327,4.466023 0.516678,2.392909 0.939414,4.3917 0.939414,4.441759 0,0.152151 0.68916,0.10609 7.446152,-0.497669 z m 18.61095,-1.638008 c 3.45447,-0.294193 6.30813,-0.558289 6.34147,-0.586881 0.0557,-0.04776 -0.32113,-9.112675 -0.38186,-9.186562 -0.0678,-0.08245 -14.52662,1.243583 -14.62424,1.341203 -0.0992,0.09916 0.86438,8.378902 1.03965,8.933821 0.0507,0.16049 0.25821,0.198652 0.70791,0.13018 0.34991,-0.05328 3.46259,-0.337571 6.91707,-0.631761 z m 17.32102,-1.501051 c 3.17097,-0.276339 6.15468,-0.547727 6.63047,-0.603086 l 0.86508,-0.100652 0.16459,-4.616822 c 0.0905,-2.539252 0.15957,-4.628855 0.15344,-4.643564 -0.008,-0.02021 -14.34322,1.239408 -14.67741,1.289728 -0.0705,0.01061 0.0802,4.207682 0.26385,7.351984 0.10044,1.719455 0.12762,1.824846 0.47059,1.824846 0.2002,0 2.95842,-0.226096 6.12939,-0.502434 z m 18.41108,-1.628149 c 2.75374,-0.236967 5.05365,-0.484735 5.11093,-0.550596 0.13742,-0.15803 1.1859,-9.073326 1.07957,-9.179654 -0.0795,-0.07945 -10.38932,0.754819 -11.6497,0.942683 -0.61744,0.09203 -0.62288,0.09999 -0.7171,1.049424 -0.0522,0.526178 -0.14464,2.624258 -0.20538,4.662399 l -0.11042,3.705711 0.74265,-0.09956 c 0.40846,-0.05476 2.99571,-0.293442 5.74945,-0.530407 z M 82.075617,63.428719 c 5.795313,-0.517539 6.110349,-0.563013 6.096353,-0.879977 -0.0081,-0.183829 -0.422536,-2.224861 -0.920931,-4.535625 -0.899038,-4.168307 -0.909615,-4.201372 -1.343266,-4.199287 -0.844914,0.0041 -13.636116,1.172744 -13.716601,1.253229 -0.04479,0.0448 0.582168,2.072336 1.39325,4.505649 1.442265,4.326917 1.484649,4.423959 1.927388,4.412978 0.248984,-0.0062 3.202696,-0.256809 6.563807,-0.556967 z m 18.366163,-1.609408 c 3.93935,-0.347819 7.21197,-0.68191 7.27249,-0.742427 0.12262,-0.122625 -0.93448,-8.812947 -1.09352,-8.989721 -0.0934,-0.103764 -15.642785,1.188599 -15.779598,1.311492 -0.04856,0.04362 1.38248,6.992774 1.789225,8.688536 0.05039,0.21007 0.217012,0.378024 0.370279,0.37323 0.153265,-0.0048 3.501772,-0.293293 7.441124,-0.64111 z m 19.44406,-1.702573 c 3.99006,-0.353105 7.30837,-0.695726 7.37403,-0.761378 0.13157,-0.131577 -0.20701,-8.917727 -0.34913,-9.05985 -0.0875,-0.08747 -15.71857,1.239694 -15.80133,1.341612 -0.0235,0.02898 0.21064,1.962415 0.52038,4.29652 0.30974,2.334105 0.56628,4.377508 0.57008,4.540895 0.004,0.163387 0.10241,0.294175 0.21911,0.290639 0.11671,-0.0035 3.47679,-0.295334 7.46686,-0.648438 z m 19.53765,-1.711211 c 4.09226,-0.363238 7.46289,-0.686066 7.49029,-0.717394 0.0446,-0.05105 0.40394,-9.1884 0.36366,-9.248411 -0.0232,-0.03458 -15.79352,1.339471 -15.84775,1.380796 -0.0893,0.06804 0.36512,9.253417 0.45758,9.249499 0.0527,-0.0022 3.44396,-0.301251 7.53622,-0.66449 z m 19.16199,-1.685872 c 2.96083,-0.254165 5.43713,-0.515926 5.50289,-0.581688 0.11571,-0.115709 1.26187,-9.153389 1.17287,-9.248287 -0.0684,-0.07296 -13.36153,1.123161 -13.44847,1.210103 -0.0808,0.08082 -0.37857,6.391684 -0.3877,8.217287 l -0.005,1.062439 0.89121,-0.09887 c 0.49016,-0.05438 3.31369,-0.306822 6.27452,-0.560986 z M 78.7337,50.000906 c 3.577069,-0.312173 6.53253,-0.596355 6.567693,-0.631517 0.03516,-0.03516 -0.366467,-2.067383 -0.892509,-4.516044 -0.946494,-4.405802 -0.960956,-4.452173 -1.390226,-4.458143 -0.500516,-0.007 -15.175436,1.235439 -15.255404,1.291546 -0.02921,0.02049 0.606815,2.065207 1.413383,4.543813 l 1.466487,4.506555 0.793407,-0.08431 c 0.436374,-0.04637 3.7201,-0.339725 7.297169,-0.651897 z m 19.807967,-1.73012 c 4.108023,-0.346584 7.487823,-0.641706 7.510653,-0.655828 0.0521,-0.0322 -1.1223,-9.119523 -1.18436,-9.164628 -0.0843,-0.0613 -16.833556,1.45251 -16.909324,1.528277 -0.05789,0.05789 1.259799,6.468705 1.790155,8.709422 0.08156,0.344573 0.169286,0.382107 0.708412,0.303092 0.33843,-0.0496 3.976439,-0.373752 8.084464,-0.720335 z M 118.82716,46.49875 c 4.34144,-0.381831 7.90907,-0.709666 7.92807,-0.728526 0.0732,-0.07263 -0.37863,-9.079269 -0.45893,-9.148277 -0.0927,-0.07966 -16.83082,1.37142 -16.92684,1.467441 -0.0526,0.05263 0.83207,7.168915 1.06297,8.550272 0.0507,0.303434 0.18424,0.552065 0.29671,0.552513 0.11248,4.48e-4 3.75659,-0.311592 8.09802,-0.693423 z m 21.10101,-1.838815 c 4.08973,-0.360618 7.46061,-0.683364 7.49084,-0.717215 0.0533,-0.05969 0.42437,-9.204175 0.37543,-9.252073 -0.0397,-0.03882 -16.97025,1.464686 -17.00473,1.510092 -0.0255,0.03359 0.3858,8.934565 0.41962,9.080897 0.0263,0.113582 1.87542,-0.01827 8.71884,-0.621701 z m 19.63973,-1.732082 c 3.40779,-0.291799 6.21316,-0.544867 6.23416,-0.562377 0.0663,-0.05526 1.06522,-8.387634 1.06522,-8.885059 V 33.00567 l -7.23101,0.630441 c -3.97705,0.346741 -7.26237,0.661794 -7.30069,0.700117 -0.0736,0.07361 -0.40052,6.872841 -0.40433,8.409512 l -0.002,0.901606 0.72145,-0.09448 c 0.3968,-0.05196 3.50965,-0.33322 6.91744,-0.625017 z M 74.652468,36.664465 c 4.256321,-0.374667 7.758497,-0.700944 7.782612,-0.72506 0.02412,-0.02412 -0.393576,-2.066528 -0.928207,-4.538693 l -0.972054,-4.494848 -0.757378,0.04569 c -1.916104,0.1156 -16.362714,1.413552 -16.424849,1.475686 -0.03851,0.03851 0.593587,2.060917 1.404669,4.494231 1.275752,3.827362 1.520679,4.424205 1.815568,4.424205 0.18748,0 3.823318,-0.306545 8.079639,-0.681214 z M 95.99537,34.783351 c 4.48148,-0.384859 8.18489,-0.734579 8.22979,-0.777155 0.0905,-0.0858 -1.004,-8.923467 -1.11981,-9.042086 -0.10083,-0.103276 -17.887915,1.459403 -18.010851,1.582337 -0.0844,0.0844 0.63799,3.680186 1.596791,7.948283 0.244616,1.088905 0.275214,1.135 0.705817,1.063306 0.247564,-0.04122 4.116782,-0.389826 8.598263,-0.774685 z m 21.55864,-1.870117 c 4.57485,-0.390198 8.38382,-0.768097 8.46439,-0.839775 0.1237,-0.110049 -0.18018,-8.975696 -0.31261,-9.120661 -0.063,-0.06892 -17.98252,1.509106 -18.06665,1.59098 -0.038,0.03704 0.18827,2.092336 0.50295,4.567335 0.46763,3.678059 0.61979,4.501056 0.83307,4.505785 0.14353,0.0032 4.00401,-0.313466 8.57885,-0.703664 z m 21.94986,-1.918035 c 4.60329,-0.407609 8.39458,-0.768764 8.4251,-0.802567 0.056,-0.06201 0.43016,-9.210318 0.37828,-9.248892 -0.0154,-0.01142 -4.07654,0.334471 -9.02484,0.76865 l -8.99692,0.789416 0.0256,2.202029 c 0.0141,1.211116 0.0793,3.290571 0.14496,4.621011 0.10298,2.086345 0.15782,2.418463 0.39882,2.415223 0.15368,-0.0021 4.04574,-0.337259 8.64903,-0.74487 z m 21.31199,-1.88018 c 3.62735,-0.315931 6.61842,-0.598484 6.64681,-0.627897 0.10618,-0.109998 1.13708,-9.156916 1.05302,-9.240983 -0.0913,-0.0913 -15.56573,1.234974 -15.67415,1.34339 -0.0615,0.06154 -0.39488,7.194208 -0.40037,8.567047 l -0.003,0.722933 0.89121,-0.09504 c 0.49016,-0.05227 3.85903,-0.353525 7.48638,-0.669454 z"
       id="path13" />
    <path
       style="fill:#62694a;stroke:#c8ab37;stroke-width:0;stroke-opacity:0.890196"
       d="M 88.48388,94.760365 C 88.180493,94.132519 87.505988,93.141397 86.984981,92.55787 l -0.947286,-1.060956 h 27.957915 27.95791 l -0.71688,0.716886 c -0.87333,0.873329 -1.61168,1.927003 -2.0591,2.938464 l -0.3354,0.75823 -24.90332,-0.0043 -24.903326,-0.0043 z"
       id="path14" />
    <path
       style="fill:#62694a;stroke:#c8ab37;stroke-width:0;stroke-opacity:0.890196"
       d="m 156.90264,94.750821 c -0.29884,-0.627311 -0.97366,-1.616067 -1.49958,-2.197236 l -0.95624,-1.056671 h 7.24554 c 8.0332,0 8.05988,0.0034 8.73706,1.099065 0.63687,1.030474 0.31618,2.345811 -0.72701,2.981881 -0.5121,0.312242 -0.88143,0.33085 -6.39994,0.322445 l -5.85648,-0.0089 z"
       id="path15" />
    <path
       style="fill:#62694a;stroke:#c8ab37;stroke-width:0;stroke-opacity:0.890196"
       d="m 57.584849,25.604658 c -1.703413,-5.112304 -3.106159,-9.305155 -3.117212,-9.317446 -0.01105,-0.01229 -0.36384,0.01147 -0.78397,0.0528 -0.420129,0.04133 -0.941801,0.08381 -1.15927,0.09441 l -0.395399,0.01927 -0.01746,-0.102073 c -0.0307,-0.17946 -0.412466,-4.202835 -0.399975,-4.215325 0.0066,-0.0066 0.753791,-0.07499 1.660415,-0.151972 2.045593,-0.173688 2.833879,-0.192099 3.178836,-0.07424 0.258768,0.08841 0.676807,0.295903 0.848167,0.420986 0.345563,0.252243 0.645065,0.855838 1.23706,2.49308 0.307292,0.849857 0.759905,2.165618 2.084204,6.058841 0.602984,1.772677 1.100715,3.227428 1.106068,3.232781 0.0054,0.0054 0.2317,-0.01664 0.502994,-0.04887 0.595471,-0.07074 3.245525,-0.309829 11.146239,-1.005611 7.003017,-0.616726 23.456712,-2.055416 23.506931,-2.055416 0.02588,0 0.03465,0.556681 0.03465,2.199442 v 2.199443 l -1.132817,0.09759 c -4.364519,0.376003 -9.404212,0.845121 -10.375401,0.965791 -0.445708,0.05538 -0.435121,0.05173 -0.435121,0.149854 0,0.357148 0.669052,3.681665 1.42758,7.093642 0.139089,0.625642 0.25289,1.148913 0.25289,1.162826 0,0.01391 -1.011826,0.02529 -2.248502,0.02529 h -2.248502 l -0.03469,-0.172548 c -0.26778,-1.33196 -1.659752,-7.799394 -1.683829,-7.823471 -0.02037,-0.02037 -1.159115,0.05705 -2.636953,0.179291 -4.609133,0.381236 -14.221515,1.257595 -14.49015,1.321064 -0.06391,0.0151 -0.06925,0.02847 -0.05271,0.131948 0.04193,0.262187 0.756593,2.511901 1.571141,4.94582 l 0.47452,1.417896 h -2.36131 -2.36131 z"
       id="path16" />
    <path
       style="fill:#62694a;stroke:#c8ab37;stroke-width:0;stroke-opacity:0.890196"
       d="m 50.294061,17.97779 c 0,-0.115357 -0.182946,-2.143698 -0.271477,-3.009886 -0.10631,-1.040143 -0.160637,-1.404198 -0.214661,-1.438466 -0.02146,-0.01361 -0.241565,-0.02481 -0.489135,-0.0249 -0.983709,-3.35e-4 -3.544427,0.190258 -8.882483,0.66112 -5.206955,0.459298 -7.007652,0.633966 -7.230622,0.701372 -0.08175,0.02472 -0.150936,0.04206 -0.15374,0.03853 -0.0028,-0.0035 -0.03544,-0.371003 -0.07252,-0.816628 -0.06255,-0.751744 -0.06417,-0.828743 -0.02244,-1.066752 0.154614,-0.881875 0.805275,-1.585153 1.650419,-1.783883 0.21454,-0.05045 16.729962,-1.5025719 16.758993,-1.4735405 0.01867,0.01867 0.734305,8.0940965 0.718675,8.1097265 -0.0071,0.0071 -1.690433,0.160552 -1.761568,0.160552 -0.01619,0 -0.02944,-0.02576 -0.02944,-0.05725 z"
       id="path17" />
  </g>
</svg>
