<svg xmlns="http://www.w3.org/2000/svg" width="220" height="128" viewBox="0 0 220 128">
    <g fill="none" fill-rule="evenodd">
        <g>
            <g transform="translate(-610 -390) translate(610 390)">
                <ellipse cx="116.722" cy="113.667" fill="#CCC" rx="83.722" ry="13.444"/>
                <ellipse cx="114.444" cy="110.611" fill="#666" rx="59.889" ry="5.5"/>
                <ellipse cx="31.167" cy="113.056" fill="#CCC" rx="14.056" ry="4.278"/>
                <ellipse cx="8.556" cy="105.722" fill="#CCC" rx="8.556" ry="3.056"/>
                <g transform="translate(26.778)">
                    <path fill="#CCC" d="M136.465 97.075H40.997c-5.27-.005-9.54-4.139-9.546-9.239v-4.619c.005-5.1 4.276-9.233 9.546-9.239h2.387c1.318 0 2.387 1.034 2.387 2.31 0 1.275-1.069 2.31-2.387 2.31h-2.387c-2.635.003-4.77 2.069-4.773 4.619v4.62c.003 2.55 2.138 4.616 4.773 4.619h95.468c1.319 0 2.387 1.034 2.387 2.31 0 1.275-1.068 2.31-2.387 2.31z"/>
                    <circle cx="116.111" cy="100.222" r="9.778" fill="#7E8589" fill-rule="nonzero"/>
                    <circle cx="47.667" cy="100.222" r="9.778" fill="#7E8589" fill-rule="nonzero"/>
                    <circle cx="116.111" cy="100.222" r="2.444" fill="#FFF" fill-rule="nonzero"/>
                    <circle cx="47.667" cy="100.222" r="2.444" fill="#FFF" fill-rule="nonzero"/>
                    <g>
                        <path fill="#CCC" d="M137.42 15.132H27.963L25.21 4.096c-.244-1.027-1.165-1.753-2.227-1.753H6.973c-1.264 0-2.288 1.018-2.288 2.275 0 1.256 1.024 2.275 2.287 2.275h14.2l15.67 65.634c.243 1.027 1.164 1.753 2.226 1.753h86.915c1.084 0 2.019-.755 2.24-1.81l11.436-54.6c.14-.67-.03-1.367-.465-1.899-.434-.531-1.086-.84-1.774-.84zm-41.264 4.55h18.087l-1.143 9.1H95.774l.382-9.1zm-27.26 0l.38 9.1H51.95l-1.143-9.1h18.088zm-39.856 0h17.158l1.144 9.1h-16.15l-2.152-9.1zm3.229 13.65h15.644l1.144 9.1H34.421l-2.152-9.1zm3.229 13.649h14.13l1.145 9.1H37.649l-2.151-9.1zm5.382 22.75l-2.153-9.1h12.617l1.144 9.1H40.88zm11.644-36.4h16.944l.38 9.1H53.667l-1.142-9.1zm1.715 13.65h15.8l.382 9.1H55.38l-1.142-9.1zm2.86 22.75l-1.144-9.1H70.61l.381 9.1H57.098zm32.382 0h-13.91l-.382-9.1h14.673l-.38 9.1zm.572-13.65H74.999l-.382-9.1h15.817l-.381 9.1zm.572-13.65H74.427l-.381-9.1h16.96l-.381 9.1zm.572-13.65H73.855l-.381-9.1h18.103l-.38 9.1zm16.757 40.95H94.059l.38-9.1h14.658l-1.143 9.1zm1.715-13.65H94.631l.38-9.1h15.801l-1.143 9.1zm1.716-13.65H95.202l.382-9.1h16.944l-1.143 9.1zm12.74 27.3h-11.561l1.143-9.1h12.323l-1.905 9.1zm2.86-13.65h-12.706l1.144-9.1h13.466l-1.905 9.1zm2.858-13.65h-13.849l1.144-9.1h14.61l-1.905 9.1zm2.86-13.65H117.71l1.144-9.1h15.753l-1.905 9.1z" transform="rotate(-5 142.095 -1.657)"/>
                        <path fill="#FF6319" d="M2.213 0h16.528v8.2H2.213C.991 8.2 0 7.207 0 5.985V2.213C0 .991.991 0 2.213 0z" transform="rotate(-5 142.095 -1.657)"/>
                    </g>
                </g>
            </g>
        </g>
    </g>
</svg>
